# xmcd CD database file
#
# Track frame offsets:
#	150
#	34365
#	70932
#	99545
#	132172
#	161045
#	187890
#	216880
#	247475
#
# Disc length: 3742 seconds
#
# Revision: 0
# Processed by: cddbd v1.4PL0 Copyright (c) Steve Scherf et al.
# Submitted via: CDex 1.50
#
DISCID=870e9c09
DTITLE=Anthony Wonsey - The Exodus
DYEAR=1997
DGENRE=Jazz
TTITLE0=Paradise Lost
TTITLE1=On Green Dolphin Street
TTITLE2=The Exodus
TTITLE3=Darlene's Theme
TTITLE4=Everything's Miller
TTITLE5=I Didn't Know What Time It Was
TTITLE6=Devotion
TTITLE7=My Dream
TTITLE8=Lenny's Lens
EXTD=YEAR: 1997
EXTT0=
EXTT1=
EXTT2=
EXTT3=
EXTT4=
EXTT5=
EXTT6=
EXTT7=
EXTT8=
PLAYORDER=
